# 3ds Max Wavefront OBJ Exporter v0.99 - (c)2007 guruware
# File Created: 07.12.2022 00:57:35

#
# object Box002
#

v  15.3000 15.3000 0.9933
v  15.3000 -15.3000 0.9933
v  -15.3000 -15.3000 0.9933
v  -15.3000 15.3000 0.9933
v  -15.3000 15.3000 40.9933
v  -15.3000 -15.3000 40.9933
v  15.3000 -15.3000 40.9933
v  15.3000 15.3000 40.9933
v  -15.3000 -20.0000 36.2933
v  -15.3000 -20.0000 5.6933
v  15.3000 -20.0000 5.6933
v  15.3000 -20.0000 36.2933
v  20.0000 15.3000 36.2933
v  20.0000 -15.3000 36.2933
v  20.0000 -15.3000 5.6933
v  20.0000 15.3000 5.6933
v  15.3000 20.0000 36.2933
v  15.3000 20.0000 5.6933
v  -15.3000 20.0000 5.6933
v  -15.3000 20.0000 36.2933
v  -20.0000 -15.3000 36.2933
v  -20.0000 15.3000 36.2933
v  -20.0000 15.3000 5.6933
v  -20.0000 -15.3000 5.6933
v  15.3000 20.0000 0.9933
v  -15.3000 20.0000 0.9933
v  -15.3000 -20.0000 0.9933
v  15.3000 -20.0000 0.9933
v  -15.3000 20.0000 40.9933
v  15.3000 20.0000 40.9933
v  15.3000 -20.0000 40.9933
v  -15.3000 -20.0000 40.9933
v  20.0000 20.0000 36.2933
v  20.0000 20.0000 5.6933
v  20.0000 -20.0000 5.6933
v  20.0000 -20.0000 36.2933
v  -20.0000 -20.0000 36.2933
v  -20.0000 -20.0000 5.6933
v  -20.0000 20.0000 5.6933
v  -20.0000 20.0000 36.2933
v  20.0000 15.3000 40.9933
v  20.0000 -15.3000 40.9933
v  20.0000 -15.3000 0.9933
v  20.0000 15.3000 0.9933
v  -20.0000 -15.3000 40.9933
v  -20.0000 15.3000 40.9933
v  -20.0000 15.3000 0.9933
v  -20.0000 -15.3000 0.9933
v  20.5774 20.5774 41.5707
v  20.7071 15.3000 41.7004
v  21.0000 15.3000 36.2933
v  20.7071 20.7071 36.2933
v  21.0000 15.3000 5.6933
v  20.7071 15.3000 0.2862
v  20.5774 20.5774 0.4160
v  20.7071 20.7071 5.6933
v  20.5774 -20.5774 0.4160
v  20.7071 -15.3000 0.2862
v  21.0000 -15.3000 5.6933
v  20.7071 -20.7071 5.6933
v  21.0000 -15.3000 36.2933
v  20.7071 -15.3000 41.7004
v  20.5774 -20.5774 41.5707
v  20.7071 -20.7071 36.2933
v  -20.5774 -20.5774 41.5707
v  -20.7071 -15.3000 41.7004
v  -21.0000 -15.3000 36.2933
v  -20.7071 -20.7071 36.2933
v  -21.0000 -15.3000 5.6933
v  -20.7071 -15.3000 0.2862
v  -20.5774 -20.5774 0.4160
v  -20.7071 -20.7071 5.6933
v  -20.5774 20.5774 0.4160
v  -20.7071 15.3000 0.2862
v  -21.0000 15.3000 5.6933
v  -20.7071 20.7071 5.6933
v  -21.0000 15.3000 36.2933
v  -20.7071 15.3000 41.7004
v  -20.5774 20.5774 41.5707
v  -20.7071 20.7071 36.2933
v  15.3000 15.3000 -0.0067
v  15.3000 20.7071 0.2862
v  -15.3000 15.3000 -0.0067
v  -15.3000 20.7071 0.2862
v  -15.3000 -15.3000 -0.0067
v  -15.3000 -20.7071 0.2862
v  15.3000 -15.3000 -0.0067
v  15.3000 -20.7071 0.2862
v  -15.3000 15.3000 41.9933
v  -15.3000 20.7071 41.7004
v  15.3000 15.3000 41.9933
v  15.3000 20.7071 41.7004
v  15.3000 -15.3000 41.9933
v  15.3000 -20.7071 41.7004
v  -15.3000 -15.3000 41.9933
v  -15.3000 -20.7071 41.7004
v  -15.3000 -21.0000 36.2933
v  15.3000 -21.0000 36.2933
v  15.3000 -21.0000 5.6933
v  -15.3000 -21.0000 5.6933
v  15.3000 21.0000 36.2933
v  -15.3000 21.0000 36.2933
v  -15.3000 21.0000 5.6933
v  15.3000 21.0000 5.6933
# 104 vertices

vn 0.0000 0.0000 -1.0000
vn 0.0000 0.0000 1.0000
vn 0.0000 -1.0000 0.0000
vn 1.0000 0.0000 0.0000
vn 0.0000 1.0000 0.0000
vn -1.0000 0.0000 0.0000
vn 0.9984 0.0400 0.0400
vn 0.9982 0.0259 0.0541
vn 0.9982 0.0541 0.0259
vn 0.9971 0.0540 -0.0540
vn 0.9984 0.0398 -0.0398
vn 0.9994 0.0252 -0.0252
vn 0.9984 -0.0400 -0.0400
vn 0.9982 -0.0259 -0.0541
vn 0.9982 -0.0541 -0.0259
vn 0.9971 -0.0540 0.0540
vn 0.9984 -0.0398 0.0398
vn 0.9994 -0.0252 0.0252
vn -0.9984 -0.0400 0.0400
vn -0.9982 -0.0259 0.0541
vn -0.9982 -0.0541 0.0259
vn -0.9971 -0.0540 -0.0540
vn -0.9984 -0.0398 -0.0398
vn -0.9994 -0.0252 -0.0252
vn -0.9984 0.0400 -0.0400
vn -0.9982 0.0259 -0.0541
vn -0.9982 0.0541 -0.0259
vn -0.9971 0.0540 0.0540
vn -0.9984 0.0398 0.0398
vn -0.9994 0.0252 0.0252
vn 0.0400 0.0400 -0.9984
vn 0.0541 0.0259 -0.9982
vn 0.0259 0.0541 -0.9982
vn -0.0540 0.0540 -0.9971
vn -0.0398 0.0398 -0.9984
vn -0.0252 0.0252 -0.9994
vn -0.0400 -0.0400 -0.9984
vn -0.0541 -0.0259 -0.9982
vn -0.0259 -0.0541 -0.9982
vn 0.0540 -0.0540 -0.9971
vn 0.0398 -0.0398 -0.9984
vn 0.0252 -0.0252 -0.9994
vn -0.0400 0.0400 0.9984
vn -0.0541 0.0259 0.9982
vn -0.0259 0.0541 0.9982
vn 0.0540 0.0540 0.9971
vn 0.0398 0.0398 0.9984
vn 0.0252 0.0252 0.9994
vn 0.0400 -0.0400 0.9984
vn 0.0541 -0.0259 0.9982
vn 0.0259 -0.0541 0.9982
vn -0.0540 -0.0540 0.9971
vn -0.0398 -0.0398 0.9984
vn -0.0252 -0.0252 0.9994
vn -0.0400 -0.9984 0.0400
vn -0.0541 -0.9982 0.0259
vn -0.0259 -0.9982 0.0541
vn 0.0540 -0.9971 0.0540
vn 0.0398 -0.9984 0.0398
vn 0.0252 -0.9994 0.0252
vn 0.0400 -0.9984 -0.0400
vn 0.0541 -0.9982 -0.0259
vn 0.0259 -0.9982 -0.0541
vn -0.0540 -0.9971 -0.0540
vn -0.0398 -0.9984 -0.0398
vn -0.0252 -0.9994 -0.0252
vn 0.0400 0.9984 0.0400
vn 0.0541 0.9982 0.0259
vn 0.0259 0.9982 0.0541
vn -0.0540 0.9971 0.0540
vn -0.0398 0.9984 0.0398
vn -0.0252 0.9994 0.0252
vn -0.0400 0.9984 -0.0400
vn -0.0541 0.9982 -0.0259
vn -0.0259 0.9982 -0.0541
vn 0.0540 0.9971 -0.0540
vn 0.0398 0.9984 -0.0398
vn 0.0252 0.9994 -0.0252
# 78 vertex normals

vt 0.6270 0.3730 0.0000
vt 0.6270 0.6270 0.0000
vt 0.3730 0.6270 0.0000
vt 0.3730 0.3730 0.0000
vt 0.0400 0.9600 0.0000
vt 0.0400 0.7059 0.0000
vt 0.2941 0.7059 0.0000
vt 0.2941 0.9600 0.0000
vt 0.3730 0.2941 0.0000
vt 0.3730 0.0400 0.0000
vt 0.6270 0.0400 0.0000
vt 0.6270 0.2941 0.0000
vt 0.9600 0.2941 0.0000
vt 0.7059 0.2941 0.0000
vt 0.7059 0.0400 0.0000
vt 0.9600 0.0400 0.0000
vt 0.0400 0.6270 0.0000
vt 0.0400 0.3730 0.0000
vt 0.2941 0.3730 0.0000
vt 0.2941 0.6270 0.0000
vt 0.2941 0.2941 0.0000
vt 0.0400 0.2941 0.0000
vt 0.0400 0.0400 0.0000
vt 0.2941 0.0400 0.0000
vt 0.6270 0.3340 0.0000
vt 0.3730 0.3340 0.0000
vt 0.3730 0.6660 0.0000
vt 0.6270 0.6660 0.0000
vt 0.0400 0.9990 0.0000
vt 0.2941 0.9990 0.0000
vt 0.2941 0.6669 0.0000
vt 0.0400 0.6669 0.0000
vt 0.9990 0.2941 0.0000
vt 0.9990 0.0400 0.0000
vt 0.6669 0.0400 0.0000
vt 0.6669 0.2941 0.0000
vt 0.3331 0.2941 0.0000
vt 0.3331 0.0400 0.0000
vt 0.0010 0.0400 0.0000
vt 0.0010 0.2941 0.0000
vt 0.3730 0.3331 0.0000
vt 0.6270 0.3331 0.0000
vt 0.6270 0.0010 0.0000
vt 0.3730 0.0010 0.0000
vt 0.9600 0.3331 0.0000
vt 0.7059 0.3331 0.0000
vt 0.7059 0.0010 0.0000
vt 0.9600 0.0010 0.0000
vt 0.0400 0.6660 0.0000
vt 0.2941 0.6660 0.0000
vt 0.2941 0.3340 0.0000
vt 0.0400 0.3340 0.0000
vt 0.2941 0.3331 0.0000
vt 0.0400 0.3331 0.0000
vt 0.0400 0.0010 0.0000
vt 0.2941 0.0010 0.0000
vt 0.4260 0.9053 0.0000
vt 0.3822 0.9063 0.0000
vt 0.3822 0.8614 0.0000
vt 0.4270 0.8614 0.0000
vt 0.7136 0.6301 0.0000
vt 0.7584 0.6301 0.0000
vt 0.7574 0.6739 0.0000
vt 0.7136 0.6750 0.0000
vt 0.5250 0.8135 0.0000
vt 0.5261 0.8573 0.0000
vt 0.4812 0.8573 0.0000
vt 0.4812 0.8124 0.0000
vt 0.5261 0.8082 0.0000
vt 0.5261 0.7633 0.0000
vt 0.5699 0.7644 0.0000
vt 0.5709 0.8082 0.0000
vt 0.5241 0.8071 0.0000
vt 0.4803 0.8082 0.0000
vt 0.4803 0.7633 0.0000
vt 0.5252 0.7633 0.0000
vt 0.4812 0.9039 0.0000
vt 0.4812 0.8590 0.0000
vt 0.5250 0.8601 0.0000
vt 0.5261 0.9039 0.0000
vt 0.5224 0.7162 0.0000
vt 0.5234 0.7600 0.0000
vt 0.4785 0.7600 0.0000
vt 0.4785 0.7151 0.0000
vt 0.3340 0.9046 0.0000
vt 0.3340 0.8597 0.0000
vt 0.3778 0.8608 0.0000
vt 0.3788 0.9046 0.0000
vt 0.6660 0.3730 0.0000
vt 0.6660 0.6270 0.0000
vt 0.3340 0.6270 0.0000
vt 0.3340 0.3730 0.0000
vt 0.0010 0.9600 0.0000
vt 0.0010 0.7059 0.0000
vt 0.3331 0.7059 0.0000
vt 0.3331 0.9600 0.0000
vt 0.3340 0.2941 0.0000
vt 0.3340 0.0400 0.0000
vt 0.6660 0.0400 0.0000
vt 0.6660 0.2941 0.0000
vt 0.0010 0.6270 0.0000
vt 0.0010 0.3730 0.0000
vt 0.3331 0.3730 0.0000
vt 0.3331 0.6270 0.0000
vt 0.7107 0.6739 0.0000
vt 0.6669 0.6750 0.0000
vt 0.6669 0.6301 0.0000
vt 0.7118 0.6301 0.0000
vt 0.8115 0.3340 0.0000
vt 0.8564 0.3340 0.0000
vt 0.8553 0.3778 0.0000
vt 0.8115 0.3788 0.0000
vt 0.8136 0.4814 0.0000
vt 0.8575 0.4803 0.0000
vt 0.8575 0.5252 0.0000
vt 0.8126 0.5252 0.0000
vt 0.9065 0.4752 0.0000
vt 0.8616 0.4752 0.0000
vt 0.8627 0.4314 0.0000
vt 0.9065 0.4304 0.0000
vt 0.7179 0.5813 0.0000
vt 0.7617 0.5802 0.0000
vt 0.7617 0.6251 0.0000
vt 0.7169 0.6251 0.0000
vt 0.8082 0.4270 0.0000
vt 0.7633 0.4270 0.0000
vt 0.7644 0.3832 0.0000
vt 0.8082 0.3822 0.0000
vt 0.8064 0.5741 0.0000
vt 0.7626 0.5751 0.0000
vt 0.7626 0.5302 0.0000
vt 0.8075 0.5302 0.0000
vt 0.4785 0.6669 0.0000
vt 0.5234 0.6669 0.0000
vt 0.5224 0.7107 0.0000
vt 0.4785 0.7118 0.0000
vt 0.7679 0.5241 0.0000
vt 0.7668 0.4803 0.0000
vt 0.8117 0.4803 0.0000
vt 0.8117 0.5252 0.0000
vt 0.7169 0.5302 0.0000
vt 0.7617 0.5302 0.0000
vt 0.7607 0.5741 0.0000
vt 0.7169 0.5751 0.0000
vt 0.7107 0.7206 0.0000
vt 0.6669 0.7217 0.0000
vt 0.6669 0.6768 0.0000
vt 0.7118 0.6768 0.0000
vt 0.3822 0.9521 0.0000
vt 0.3822 0.9072 0.0000
vt 0.4260 0.9083 0.0000
vt 0.4270 0.9521 0.0000
vt 0.8170 0.4742 0.0000
vt 0.8159 0.4304 0.0000
vt 0.8608 0.4304 0.0000
vt 0.8608 0.4752 0.0000
vt 0.4312 0.8623 0.0000
vt 0.4761 0.8623 0.0000
vt 0.4750 0.9061 0.0000
vt 0.4312 0.9072 0.0000
vt 0.4750 0.9519 0.0000
vt 0.4312 0.9530 0.0000
vt 0.4312 0.9081 0.0000
vt 0.4761 0.9081 0.0000
vt 0.5278 0.8573 0.0000
vt 0.5278 0.8124 0.0000
vt 0.5716 0.8135 0.0000
vt 0.5727 0.8573 0.0000
vt 0.7252 0.4387 0.0000
vt 0.7193 0.4328 0.0000
vt 0.7642 0.4304 0.0000
vt 0.7642 0.4387 0.0000
vt 0.7252 0.4777 0.0000
vt 0.7169 0.4777 0.0000
vt 0.7541 0.3423 0.0000
vt 0.7600 0.3364 0.0000
vt 0.7624 0.3813 0.0000
vt 0.7541 0.3813 0.0000
vt 0.7151 0.3423 0.0000
vt 0.7151 0.3340 0.0000
vt 0.6752 0.3730 0.0000
vt 0.6693 0.3788 0.0000
vt 0.6669 0.3340 0.0000
vt 0.6752 0.3340 0.0000
vt 0.7142 0.3730 0.0000
vt 0.7142 0.3813 0.0000
vt 0.4212 0.8023 0.0000
vt 0.4270 0.8082 0.0000
vt 0.3822 0.8106 0.0000
vt 0.3822 0.8023 0.0000
vt 0.4212 0.7633 0.0000
vt 0.4295 0.7633 0.0000
vt 0.7234 0.3905 0.0000
vt 0.7175 0.3846 0.0000
vt 0.7624 0.3822 0.0000
vt 0.7624 0.3905 0.0000
vt 0.7234 0.4295 0.0000
vt 0.7151 0.4295 0.0000
vt 0.4694 0.7059 0.0000
vt 0.4752 0.7118 0.0000
vt 0.4304 0.7142 0.0000
vt 0.4304 0.7059 0.0000
vt 0.4694 0.6669 0.0000
vt 0.4777 0.6669 0.0000
vt 0.7559 0.5193 0.0000
vt 0.7617 0.5252 0.0000
vt 0.7169 0.5276 0.0000
vt 0.7169 0.5193 0.0000
vt 0.7559 0.4803 0.0000
vt 0.7642 0.4803 0.0000
vt 0.7059 0.3905 0.0000
vt 0.7118 0.3846 0.0000
vt 0.7142 0.4295 0.0000
vt 0.7059 0.4295 0.0000
vt 0.6669 0.3905 0.0000
vt 0.6669 0.3822 0.0000
vt 0.4702 0.8023 0.0000
vt 0.4761 0.8082 0.0000
vt 0.4312 0.8106 0.0000
vt 0.4312 0.8023 0.0000
vt 0.4702 0.7633 0.0000
vt 0.4785 0.7633 0.0000
vt 0.3905 0.7541 0.0000
vt 0.3846 0.7600 0.0000
vt 0.3822 0.7151 0.0000
vt 0.3905 0.7151 0.0000
vt 0.4295 0.7541 0.0000
vt 0.4295 0.7624 0.0000
vt 0.4395 0.8207 0.0000
vt 0.4337 0.8148 0.0000
vt 0.4785 0.8124 0.0000
vt 0.4785 0.8207 0.0000
vt 0.4395 0.8597 0.0000
vt 0.4312 0.8597 0.0000
vt 0.8023 0.3730 0.0000
vt 0.8082 0.3788 0.0000
vt 0.7633 0.3813 0.0000
vt 0.7633 0.3730 0.0000
vt 0.8023 0.3340 0.0000
vt 0.8106 0.3340 0.0000
vt 0.6752 0.5385 0.0000
vt 0.6693 0.5327 0.0000
vt 0.7142 0.5302 0.0000
vt 0.7142 0.5385 0.0000
vt 0.6752 0.5776 0.0000
vt 0.6669 0.5776 0.0000
vt 0.3905 0.7059 0.0000
vt 0.3846 0.7118 0.0000
vt 0.3822 0.6669 0.0000
vt 0.3905 0.6669 0.0000
vt 0.4295 0.7059 0.0000
vt 0.4295 0.7142 0.0000
vt 0.3423 0.7059 0.0000
vt 0.3364 0.7118 0.0000
vt 0.3340 0.6669 0.0000
vt 0.3423 0.6669 0.0000
vt 0.3813 0.7059 0.0000
vt 0.3813 0.7142 0.0000
vt 0.8058 0.4694 0.0000
vt 0.8117 0.4752 0.0000
vt 0.7668 0.4777 0.0000
vt 0.7668 0.4694 0.0000
vt 0.8058 0.4304 0.0000
vt 0.8141 0.4304 0.0000
vt 0.7059 0.5193 0.0000
vt 0.7118 0.5252 0.0000
vt 0.6669 0.5276 0.0000
vt 0.6669 0.5193 0.0000
vt 0.7059 0.4803 0.0000
vt 0.7142 0.4803 0.0000
vt 0.3423 0.8198 0.0000
vt 0.3364 0.8139 0.0000
vt 0.3813 0.8115 0.0000
vt 0.3813 0.8198 0.0000
vt 0.3423 0.8588 0.0000
vt 0.3340 0.8588 0.0000
vt 0.7059 0.4694 0.0000
vt 0.7118 0.4752 0.0000
vt 0.6669 0.4777 0.0000
vt 0.6669 0.4694 0.0000
vt 0.7059 0.4304 0.0000
vt 0.7142 0.4304 0.0000
vt 0.3423 0.8023 0.0000
vt 0.3364 0.8082 0.0000
vt 0.3340 0.7633 0.0000
vt 0.3423 0.7633 0.0000
vt 0.3813 0.8023 0.0000
vt 0.3813 0.8106 0.0000
vt 0.4212 0.8514 0.0000
vt 0.4270 0.8573 0.0000
vt 0.3822 0.8597 0.0000
vt 0.3822 0.8514 0.0000
vt 0.4212 0.8124 0.0000
vt 0.4295 0.8124 0.0000
vt 0.3423 0.7541 0.0000
vt 0.3364 0.7600 0.0000
vt 0.3340 0.7151 0.0000
vt 0.3423 0.7151 0.0000
vt 0.3813 0.7541 0.0000
vt 0.3813 0.7624 0.0000
vt 0.6752 0.5885 0.0000
vt 0.6693 0.5826 0.0000
vt 0.7142 0.5802 0.0000
vt 0.7142 0.5885 0.0000
vt 0.6752 0.6275 0.0000
vt 0.6669 0.6275 0.0000
vt 0.4387 0.7234 0.0000
vt 0.4328 0.7175 0.0000
vt 0.4777 0.7151 0.0000
vt 0.4777 0.7234 0.0000
vt 0.4387 0.7624 0.0000
vt 0.4304 0.7624 0.0000
# 312 texture coords

o Box002
g Box002
s off
f 1/1/1 2/2/1 3/3/1 
f 3/3/1 4/4/1 1/1/1 
f 5/5/2 6/6/2 7/7/2 
f 7/7/2 8/8/2 5/5/2 
f 9/9/3 10/10/3 11/11/3 
f 11/11/3 12/12/3 9/9/3 
f 13/13/4 14/14/4 15/15/4 
f 15/15/4 16/16/4 13/13/4 
f 17/17/5 18/18/5 19/19/5 
f 19/19/5 20/20/5 17/17/5 
f 21/21/6 22/22/6 23/23/6 
f 23/23/6 24/24/6 21/21/6 
f 25/25/1 1/1/1 4/4/1 
f 4/4/1 26/26/1 25/25/1 
f 27/27/1 3/3/1 2/2/1 
f 2/2/1 28/28/1 27/27/1 
f 29/29/2 5/5/2 8/8/2 
f 8/8/2 30/30/2 29/29/2 
f 31/31/2 7/7/2 6/6/2 
f 6/6/2 32/32/2 31/31/2 
f 33/33/4 13/13/4 16/16/4 
f 16/16/4 34/34/4 33/33/4 
f 35/35/4 15/15/4 14/14/4 
f 14/14/4 36/36/4 35/35/4 
f 37/37/6 21/21/6 24/24/6 
f 24/24/6 38/38/6 37/37/6 
f 39/39/6 23/23/6 22/22/6 
f 22/22/6 40/40/6 39/39/6 
f 32/41/3 9/9/3 12/12/3 
f 12/12/3 31/42/3 32/41/3 
f 28/43/3 11/11/3 10/10/3 
f 10/10/3 27/44/3 28/43/3 
f 41/45/4 42/46/4 14/14/4 
f 14/14/4 13/13/4 41/45/4 
f 43/47/4 44/48/4 16/16/4 
f 16/16/4 15/15/4 43/47/4 
f 30/49/5 17/17/5 20/20/5 
f 20/20/5 29/50/5 30/49/5 
f 26/51/5 19/19/5 18/18/5 
f 18/18/5 25/52/5 26/51/5 
f 45/53/6 46/54/6 22/22/6 
f 22/22/6 21/21/6 45/53/6 
f 47/55/6 48/56/6 24/24/6 
f 24/24/6 23/23/6 47/55/6 
f 49/57/7 50/58/8 51/59/7 
f 51/59/7 52/60/9 49/57/7 
f 53/61/10 54/62/11 55/63/12 
f 55/63/12 56/64/11 53/61/10 
f 57/65/13 58/66/14 59/67/13 
f 59/67/13 60/68/15 57/65/13 
f 61/69/16 62/70/17 63/71/18 
f 63/71/18 64/72/17 61/69/16 
f 65/73/19 66/74/20 67/75/19 
f 67/75/19 68/76/21 65/73/19 
f 69/77/22 70/78/23 71/79/24 
f 71/79/24 72/80/23 69/77/22 
f 73/81/25 74/82/26 75/83/25 
f 75/83/25 76/84/27 73/81/25 
f 77/85/28 78/86/29 79/87/30 
f 79/87/30 80/88/29 77/85/28 
f 44/89/1 43/90/1 2/2/1 
f 2/2/1 1/1/1 44/89/1 
f 48/91/1 47/92/1 4/4/1 
f 4/4/1 3/3/1 48/91/1 
f 46/93/2 45/94/2 6/6/2 
f 6/6/2 5/5/2 46/93/2 
f 42/95/2 41/96/2 8/8/2 
f 8/8/2 7/7/2 42/95/2 
f 37/97/3 38/98/3 10/10/3 
f 10/10/3 9/9/3 37/97/3 
f 35/99/3 36/100/3 12/12/3 
f 12/12/3 11/11/3 35/99/3 
f 33/101/5 34/102/5 18/18/5 
f 18/18/5 17/17/5 33/101/5 
f 39/103/5 40/104/5 20/20/5 
f 20/20/5 19/19/5 39/103/5 
f 55/105/31 54/106/32 81/107/31 
f 81/107/31 82/108/33 55/105/31 
f 83/109/34 74/110/35 73/111/36 
f 73/111/36 84/112/35 83/109/34 
f 71/113/37 70/114/38 85/115/37 
f 85/115/37 86/116/39 71/113/37 
f 87/117/40 58/118/41 57/119/42 
f 57/119/42 88/120/41 87/117/40 
f 79/121/43 78/122/44 89/123/43 
f 89/123/43 90/124/45 79/121/43 
f 91/125/46 50/126/47 49/127/48 
f 49/127/48 92/128/47 91/125/46 
f 63/129/49 62/130/50 93/131/49 
f 93/131/49 94/132/51 63/129/49 
f 95/133/52 66/134/53 65/135/54 
f 65/135/54 96/136/53 95/133/52 
f 65/137/55 68/138/56 97/139/55 
f 97/139/55 96/140/57 65/137/55 
f 98/141/58 64/142/59 63/143/60 
f 63/143/60 94/144/59 98/141/58 
f 57/145/61 60/146/62 99/147/61 
f 99/147/61 88/148/63 57/145/61 
f 100/149/64 72/150/65 71/151/66 
f 71/151/66 86/152/65 100/149/64 
f 49/153/67 52/154/68 101/155/67 
f 101/155/67 92/156/69 49/153/67 
f 102/157/70 80/158/71 79/159/72 
f 79/159/72 90/160/71 102/157/70 
f 73/161/73 76/162/74 103/163/73 
f 103/163/73 84/164/75 73/161/73 
f 104/165/76 56/166/77 55/167/78 
f 55/167/78 82/168/77 104/165/76 
f 41/169/3 50/170/3 91/171/3 
f 91/171/3 8/172/3 41/169/3 
f 41/169/3 13/173/3 51/174/3 
f 51/174/3 50/170/3 41/169/3 
f 33/175/1 52/176/1 51/177/1 
f 51/177/1 13/178/1 33/175/1 
f 33/175/1 17/179/1 101/180/1 
f 101/180/1 52/176/1 33/175/1 
f 30/181/6 92/182/6 101/183/6 
f 101/183/6 17/184/6 30/181/6 
f 30/181/6 8/185/6 91/186/6 
f 91/186/6 92/182/6 30/181/6 
f 44/187/3 54/188/3 53/189/3 
f 53/189/3 16/190/3 44/187/3 
f 44/187/3 1/191/3 81/192/3 
f 81/192/3 54/188/3 44/187/3 
f 25/193/6 82/194/6 81/195/6 
f 81/195/6 1/196/6 25/193/6 
f 25/193/6 18/197/6 104/198/6 
f 104/198/6 82/194/6 25/193/6 
f 34/199/2 56/200/2 104/201/2 
f 104/201/2 18/202/2 34/199/2 
f 34/199/2 16/203/2 53/204/2 
f 53/204/2 56/200/2 34/199/2 
f 43/205/5 58/206/5 87/207/5 
f 87/207/5 2/208/5 43/205/5 
f 43/205/5 15/209/5 59/210/5 
f 59/210/5 58/206/5 43/205/5 
f 35/211/2 60/212/2 59/213/2 
f 59/213/2 15/214/2 35/211/2 
f 35/211/2 11/215/2 99/216/2 
f 99/216/2 60/212/2 35/211/2 
f 28/217/6 88/218/6 99/219/6 
f 99/219/6 11/220/6 28/217/6 
f 28/217/6 2/221/6 87/222/6 
f 87/222/6 88/218/6 28/217/6 
f 42/223/5 62/224/5 61/225/5 
f 61/225/5 14/226/5 42/223/5 
f 42/223/5 7/227/5 93/228/5 
f 93/228/5 62/224/5 42/223/5 
f 31/229/6 94/230/6 93/231/6 
f 93/231/6 7/232/6 31/229/6 
f 31/229/6 12/233/6 98/234/6 
f 98/234/6 94/230/6 31/229/6 
f 36/235/1 64/236/1 98/237/1 
f 98/237/1 12/238/1 36/235/1 
f 36/235/1 14/239/1 61/240/1 
f 61/240/1 64/236/1 36/235/1 
f 45/241/5 66/242/5 95/243/5 
f 95/243/5 6/244/5 45/241/5 
f 45/241/5 21/245/5 67/246/5 
f 67/246/5 66/242/5 45/241/5 
f 37/247/1 68/248/1 67/249/1 
f 67/249/1 21/250/1 37/247/1 
f 37/247/1 9/251/1 97/252/1 
f 97/252/1 68/248/1 37/247/1 
f 32/253/4 96/254/4 97/255/4 
f 97/255/4 9/256/4 32/253/4 
f 32/253/4 6/257/4 95/258/4 
f 95/258/4 96/254/4 32/253/4 
f 48/259/5 70/260/5 69/261/5 
f 69/261/5 24/262/5 48/259/5 
f 48/259/5 3/263/5 85/264/5 
f 85/264/5 70/260/5 48/259/5 
f 27/265/4 86/266/4 85/267/4 
f 85/267/4 3/268/4 27/265/4 
f 27/265/4 10/269/4 100/270/4 
f 100/270/4 86/266/4 27/265/4 
f 38/271/2 72/272/2 100/273/2 
f 100/273/2 10/274/2 38/271/2 
f 38/271/2 24/275/2 69/276/2 
f 69/276/2 72/272/2 38/271/2 
f 47/277/3 74/278/3 83/279/3 
f 83/279/3 4/280/3 47/277/3 
f 47/277/3 23/281/3 75/282/3 
f 75/282/3 74/278/3 47/277/3 
f 39/283/2 76/284/2 75/285/2 
f 75/285/2 23/286/2 39/283/2 
f 39/283/2 19/287/2 103/288/2 
f 103/288/2 76/284/2 39/283/2 
f 26/289/4 84/290/4 103/291/4 
f 103/291/4 19/292/4 26/289/4 
f 26/289/4 4/293/4 83/294/4 
f 83/294/4 84/290/4 26/289/4 
f 46/295/3 78/296/3 77/297/3 
f 77/297/3 22/298/3 46/295/3 
f 46/295/3 5/299/3 89/300/3 
f 89/300/3 78/296/3 46/295/3 
f 29/301/4 90/302/4 89/303/4 
f 89/303/4 5/304/4 29/301/4 
f 29/301/4 20/305/4 102/306/4 
f 102/306/4 90/302/4 29/301/4 
f 40/307/1 80/308/1 102/309/1 
f 102/309/1 20/310/1 40/307/1 
f 40/307/1 22/311/1 77/312/1 
f 77/312/1 80/308/1 40/307/1 
# 204 faces

