# 3ds Max Wavefront OBJ Exporter v0.99 - (c)2007 guruware
# File Created: 03.12.2022 13:33:03

#
# object Box001
#

v  20.0000 20.0000 0.0000
v  20.0000 -20.0000 0.0000
v  -20.0000 -20.0000 0.0000
v  -20.0000 20.0000 0.0000
v  20.0000 20.0000 80.0000
v  -20.0000 20.0000 80.0000
v  -20.0000 -20.0000 80.0000
v  20.0000 -20.0000 80.0000
# 8 vertices

vn 0.5774 0.5774 -0.5774
vn 0.5774 -0.5774 -0.5774
vn -0.5774 -0.5774 -0.5774
vn -0.5774 0.5774 -0.5774
vn 0.5774 0.5774 0.5774
vn -0.5774 0.5774 0.5774
vn -0.5774 -0.5774 0.5774
vn 0.5774 -0.5774 0.5774
# 8 vertex normals

vt 0.0000 1.0000 0.0000
vt 0.0000 0.0000 0.0000
vt 1.0000 0.0000 0.0000
vt 1.0000 1.0000 0.0000
# 4 texture coords

o Box001
g Box001
s 2
f 1/1/1 2/2/2 3/3/3 
f 3/3/3 4/4/4 1/1/1 
s 4
f 5/4/5 6/1/6 7/2/7 
f 7/2/7 8/3/8 5/4/5 
s 8
f 8/4/8 7/1/7 3/2/3 
f 3/2/3 2/3/2 8/4/8 
s 16
f 5/4/5 8/1/8 2/2/2 
f 2/2/2 1/3/1 5/4/5 
s 32
f 6/4/6 5/1/5 1/2/1 
f 1/2/1 4/3/4 6/4/6 
s 64
f 7/4/7 6/1/6 4/2/4 
f 4/2/4 3/3/3 7/4/7 
# 12 faces

