# 3ds Max Wavefront OBJ Exporter v0.99 - (c)2007 guruware
# File Created: 30.11.2022 15:10:30

#
# object Plane001
#

v  -133.5066 0.0000 623.0308
v  133.5066 0.0000 623.0308
v  611.9051 0.0000 -453.1859
v  -611.9051 -20.5740 -453.1859
v  -611.9051 271.7465 -453.1862
v  -133.5066 292.3207 623.0308
v  133.5066 292.3207 623.0308
v  611.9051 292.3210 -453.1862
# 8 vertices

vn 0.4298 0.6002 -0.6746
vn -0.4399 0.5981 -0.6699
vn -0.6986 0.5548 0.4518
vn 0.6907 0.5670 0.4488
vn 0.8387 0.0000 0.5446
vn 0.5418 0.0000 -0.8405
vn -0.5449 0.0000 -0.8385
vn -0.8430 0.0000 0.5379
# 8 vertex normals

vt 0.5592 0.7735 0.0000
vt 0.4185 0.7743 0.0000
vt 0.1630 0.2089 0.0000
vt 0.8078 0.2049 0.0000
vt 0.9478 0.2691 0.0000
vt 0.6992 0.8376 0.0000
vt 0.5601 0.9275 0.0000
vt 0.4195 0.9283 0.0000
vt 0.2782 0.8377 0.0000
vt 0.0227 0.2723 0.0000
vt 0.1595 0.0550 0.0000
vt 0.8043 0.0510 0.0000
# 12 texture coords

o Plane001
g Plane001
s 1
f 1/1/1 2/2/2 3/3/3 
f 3/3/3 4/4/4 1/1/1 
s off
f 4/4/4 5/5/5 6/6/6 
f 6/6/6 1/1/1 4/4/4 
f 2/2/2 1/1/1 6/7/6 
f 6/7/6 7/8/7 2/2/2 
f 3/3/3 2/2/2 7/9/7 
f 7/9/7 8/10/8 3/3/3 
f 4/4/4 3/3/3 8/11/8 
f 8/11/8 5/12/5 4/4/4 
# 10 faces

