# 3ds Max Wavefront OBJ Exporter v0.99 - (c)2007 guruware
# File Created: 14.11.2022 12:35:01

#
# object Plane001
#

v  -120.0000 0.0000 559.9999
v  120.0000 0.0000 559.9999
v  549.9999 0.0000 -599.9999
v  -549.9999 -18.4927 -599.9999
v  -549.9999 618.4924 -599.9999
v  -120.0000 636.9854 559.9999
v  120.0000 636.9854 559.9999
v  549.9999 636.9854 -599.9999
# 8 vertices

vn -0.0077 1.0000 -0.0044
vn 0.0000 1.0000 -0.0000
vn -0.0145 0.9999 -0.0084
vn -0.0168 0.9998 -0.0097
vn 0.9377 -0.0000 -0.3476
vn 0.9377 0.0000 -0.3476
vn 0.0000 0.0000 -1.0000
vn -0.9377 0.0000 -0.3476
vn -0.9377 -0.0000 -0.3476
vn 0.0000 0.0000 1.0000
# 10 vertex normals

vt 0.0131 0.0033 0.0000
vt 0.9901 0.0478 0.0000
vt 0.9817 0.9916 0.0000
vt 0.0099 0.9894 0.0000
vt 0.0000 1.0000 0.0000
vt 0.0000 0.0000 0.0000
vt 1.0000 0.0000 0.0000
vt 1.0000 1.0000 0.0000
# 8 texture coords

o Plane001
g Plane001
s 1
f 1/1/1 2/2/2 3/3/3 
f 3/3/3 4/4/4 1/1/1 
s off
f 4/4/5 5/5/5 6/6/5 
f 6/6/6 1/1/6 4/4/6 
f 2/2/7 1/1/7 6/6/7 
f 6/6/7 7/7/7 2/2/7 
f 3/3/8 2/2/8 7/7/8 
f 7/7/9 8/8/9 3/3/9 
f 4/4/10 3/3/10 8/8/10 
f 8/8/10 5/5/10 4/4/10 
# 10 faces

