# 3ds Max Wavefront OBJ Exporter v0.99 - (c)2007 guruware
# File Created: 14.12.2022 10:25:07

#
# object Object004
#

v  -5.1835 -10.8539 0.1377
v  -3.9354 -10.4669 -4.8551
v  -0.2860 -14.0608 -4.2214
v  -1.5341 -14.4479 0.7715
v  5.1044 0.1972 3.5663
v  8.7537 -3.3967 4.2000
v  10.0019 -3.0097 -0.7928
v  6.3525 0.5843 -1.4265
v  -10.3220 -14.4326 -2.4495
v  -10.3220 -12.6674 -7.2992
v  -5.1610 -12.6674 -7.2992
v  -5.1610 -14.4326 -2.4495
v  -10.3220 0.1167 2.8460
v  -5.1610 0.1167 2.8460
v  -5.1610 1.8818 -2.0037
v  -10.3220 1.8818 -2.0037
# 16 vertices

vn -0.9315 -0.0533 0.3598
vn -0.6522 0.0333 -0.7573
vn 0.1642 -0.7708 -0.6155
vn -0.1150 -0.8574 0.5016
vn -0.1642 0.7708 0.6155
vn 0.6522 -0.0333 0.7573
vn 0.9315 0.0533 -0.3598
vn 0.1150 0.8574 -0.5016
vn -0.5774 -0.7400 0.3451
vn -0.5774 -0.3451 -0.7400
vn 0.5774 -0.3451 -0.7400
vn 0.5774 -0.7400 0.3451
vn -0.5774 0.3451 0.7400
vn 0.5774 0.3451 0.7400
vn 0.5774 0.7400 -0.3451
vn -0.5774 0.7400 -0.3451
# 16 vertex normals

vt 0.6250 0.1875 0.0000
vt 0.6250 0.2500 0.0000
vt 0.6875 0.2500 0.0000
vt 0.6875 0.1875 0.0000
vt 0.5625 0.1875 0.0000
vt 0.5625 0.2500 0.0000
vt 0.5625 0.0000 0.0000
vt 0.6250 0.0000 0.0000
vt 0.6875 0.0000 0.0000
vt 0.7500 0.0000 0.0000
vt 0.7500 0.1875 0.0000
vt 0.5000 0.0000 0.0000
vt 0.5000 0.1875 0.0000
vt 0.7500 0.6875 0.0000
vt 0.7500 0.7500 0.0000
vt 0.8125 0.7500 0.0000
vt 0.8125 0.6875 0.0000
vt 0.6875 0.6875 0.0000
vt 0.6875 0.7500 0.0000
vt 0.6875 0.5000 0.0000
vt 0.7500 0.5000 0.0000
vt 0.8125 0.5000 0.0000
vt 0.8750 0.5000 0.0000
vt 0.8750 0.6875 0.0000
vt 0.6250 0.5000 0.0000
vt 0.6250 0.6875 0.0000
# 26 texture coords

o Object004
g Object004
s off
f 1/1/1 2/2/2 3/3/3 
f 3/3/3 4/4/4 1/1/1 
f 5/5/5 6/1/6 7/2/7 
f 7/2/7 8/6/8 5/5/5 
f 1/7/1 4/8/4 6/1/6 
f 6/1/6 5/5/5 1/7/1 
f 4/8/4 3/9/3 7/4/7 
f 7/4/7 6/1/6 4/8/4 
f 3/9/3 2/10/2 8/11/8 
f 8/11/8 7/4/7 3/9/3 
f 2/12/2 1/7/1 5/5/5 
f 5/5/5 8/13/8 2/12/2 
f 9/14/9 10/15/10 11/16/11 
f 11/16/11 12/17/12 9/14/9 
f 13/18/13 14/14/14 15/15/15 
f 15/15/15 16/19/16 13/18/13 
f 9/20/9 12/21/12 14/14/14 
f 14/14/14 13/18/13 9/20/9 
f 12/21/12 11/22/11 15/17/15 
f 15/17/15 14/14/14 12/21/12 
f 11/22/11 10/23/10 16/24/16 
f 16/24/16 15/17/15 11/22/11 
f 10/25/10 9/20/9 13/18/13 
f 13/18/13 16/26/16 10/25/10 
# 24 faces

