# 3ds Max Wavefront OBJ Exporter v0.99 - (c)2007 guruware
# File Created: 14.12.2022 01:58:04

#
# object Steve
#

v  -5.1610 -2.5805 15.7760
v  -5.1610 2.5805 15.7760
v  5.1610 2.5805 15.7760
v  5.1610 -2.5805 15.7760
v  -5.1610 -2.5805 31.2590
v  5.1610 -2.5805 31.2590
v  5.1610 2.5805 31.2590
v  -5.1610 2.5805 31.2590
# 8 vertices

vn -0.5774 -0.5774 -0.5774
vn -0.5774 0.5774 -0.5774
vn 0.5774 0.5774 -0.5774
vn 0.5774 -0.5774 -0.5774
vn -0.5774 -0.5774 0.5774
vn 0.5774 -0.5774 0.5774
vn 0.5774 0.5774 0.5774
vn -0.5774 0.5774 0.5774
# 8 vertex normals

vt 0.4375 0.6875 0.0000
vt 0.4375 0.7500 0.0000
vt 0.5625 0.7500 0.0000
vt 0.5624 0.6875 0.0000
vt 0.3125 0.6875 0.0000
vt 0.3125 0.7500 0.0000
vt 0.3125 0.5000 0.0000
vt 0.4375 0.5000 0.0000
vt 0.5000 0.5000 0.0000
vt 0.5000 0.6875 0.0000
vt 0.6250 0.5000 0.0000
vt 0.6250 0.6875 0.0000
vt 0.2500 0.5000 0.0000
vt 0.2500 0.6875 0.0000
# 14 texture coords

o Steve
g Steve
s off
f 1/1/1 2/2/2 3/3/3 
f 3/3/3 4/4/4 1/1/1 
f 5/5/5 6/1/6 7/2/7 
f 7/2/7 8/6/8 5/5/5 
f 1/7/1 4/8/4 6/1/6 
f 6/1/6 5/5/5 1/7/1 
f 4/8/4 3/9/3 7/10/7 
f 7/10/7 6/1/6 4/8/4 
f 3/9/3 2/11/2 8/12/8 
f 8/12/8 7/10/7 3/9/3 
f 2/13/2 1/7/1 5/5/5 
f 5/5/5 8/14/8 2/13/2 
# 12 faces

