# 3ds Max Wavefront OBJ Exporter v0.99 - (c)2007 guruware
# File Created: 19.11.2022 00:13:04

#
# object Cylinder001
#

v  -0.0000 2.8800 0.0000
v  5.4851 3.9520 -3.0477
v  6.1967 3.9520 -0.9878
v  4.1120 3.9520 -4.7399
v  2.2429 3.9520 -5.8604
v  0.1032 3.9520 -6.2741
v  -2.0489 3.9520 -5.9310
v  -3.9538 3.9520 -4.8726
v  -5.3819 3.9520 -3.2264
v  -6.1609 3.9520 -1.1911
v  -6.1967 3.9520 0.9878
v  -5.4851 3.9520 3.0477
v  -4.1120 3.9520 4.7399
v  -2.2429 3.9520 5.8604
v  -0.1032 3.9520 6.2741
v  2.0489 3.9520 5.9310
v  3.9538 3.9520 4.8726
v  5.3819 3.9520 3.2264
v  6.1609 3.9520 1.1911
v  7.5917 7.0933 -3.2323
v  8.2394 7.0933 -0.4408
v  6.0284 7.0933 -5.6339
v  3.7379 7.0933 -7.3560
v  0.9966 7.0933 -8.1908
v  -1.8649 7.0933 -8.0377
v  -4.5015 7.0933 -6.9151
v  -6.5951 7.0933 -4.9585
v  -7.8933 7.0933 -2.4038
v  -8.2394 7.0933 0.4408
v  -7.5917 7.0933 3.2323
v  -6.0284 7.0933 5.6339
v  -3.7379 7.0933 7.3559
v  -0.9966 7.0933 8.1908
v  1.8649 7.0933 8.0377
v  4.5015 7.0933 6.9151
v  6.5951 7.0933 4.9585
v  7.8933 7.0933 2.4038
v  8.3769 12.1333 -3.1242
v  8.9403 12.1333 -0.0707
v  6.8032 12.1333 -5.8009
v  4.4089 12.1333 -7.7779
v  1.4828 12.1333 -8.8167
v  -1.6221 12.1333 -8.7922
v  -4.5314 12.1333 -7.7071
v  -6.8941 12.1333 -5.6925
v  -8.4253 12.1333 -2.9913
v  -8.9403 12.1333 0.0707
v  -8.3769 12.1333 3.1242
v  -6.8032 12.1333 5.8009
v  -4.4089 12.1333 7.7779
v  -1.4828 12.1333 8.8167
v  1.6221 12.1333 8.7922
v  4.5314 12.1333 7.7071
v  6.8941 12.1333 5.6925
v  8.4253 12.1333 2.9913
v  8.4253 17.8667 -2.9913
v  8.9403 17.8667 0.0708
v  6.8941 17.8667 -5.6925
v  4.5314 17.8667 -7.7071
v  1.6221 17.8667 -8.7922
v  -1.4828 17.8667 -8.8167
v  -4.4089 17.8667 -7.7779
v  -6.8032 17.8667 -5.8009
v  -8.3769 17.8667 -3.1242
v  -8.9403 17.8667 -0.0708
v  -8.4253 17.8667 2.9913
v  -6.8941 17.8667 5.6925
v  -4.5314 17.8667 7.7071
v  -1.6221 17.8667 8.7922
v  1.4828 17.8667 8.8167
v  4.4089 17.8667 7.7779
v  6.8032 17.8667 5.8009
v  8.3769 17.8667 3.1242
v  7.8933 22.9067 -2.4038
v  8.2394 22.9067 0.4408
v  6.5951 22.9067 -4.9585
v  4.5015 22.9067 -6.9151
v  1.8649 22.9067 -8.0377
v  -0.9966 22.9067 -8.1908
v  -3.7379 22.9067 -7.3560
v  -6.0284 22.9067 -5.6339
v  -7.5917 22.9067 -3.2323
v  -8.2394 22.9067 -0.4408
v  -7.8933 22.9067 2.4038
v  -6.5951 22.9067 4.9585
v  -4.5015 22.9067 6.9151
v  -1.8649 22.9067 8.0377
v  0.9966 22.9067 8.1908
v  3.7379 22.9067 7.3560
v  6.0284 22.9067 5.6339
v  7.5917 22.9067 3.2323
v  6.1609 26.0480 -1.1911
v  6.1967 26.0480 0.9878
v  5.3819 26.0480 -3.2264
v  3.9538 26.0480 -4.8726
v  2.0489 26.0480 -5.9310
v  -0.1032 26.0480 -6.2741
v  -2.2429 26.0480 -5.8604
v  -4.1120 26.0480 -4.7399
v  -5.4851 26.0480 -3.0477
v  -6.1967 26.0480 -0.9878
v  -6.1609 26.0480 1.1911
v  -5.3819 26.0480 3.2264
v  -3.9538 26.0480 4.8726
v  -2.0489 26.0480 5.9310
v  0.1032 26.0480 6.2741
v  2.2429 26.0480 5.8604
v  4.1120 26.0480 4.7399
v  5.4851 26.0480 3.0477
v  -0.0000 27.1200 0.0000
# 110 vertices

vn 0.0000 -1.0000 -0.0000
vn 0.5067 -0.8146 -0.2822
vn 0.5726 -0.8146 -0.0919
vn 0.3796 -0.8146 -0.4385
vn 0.2067 -0.8146 -0.5419
vn 0.0089 -0.8146 -0.5799
vn -0.1899 -0.8146 -0.5480
vn -0.3659 -0.8146 -0.4500
vn -0.4977 -0.8146 -0.2977
vn -0.5695 -0.8146 -0.1095
vn -0.5726 -0.8146 0.0919
vn -0.5067 -0.8146 0.2822
vn -0.3796 -0.8146 0.4385
vn -0.2067 -0.8146 0.5419
vn -0.0089 -0.8146 0.5799
vn 0.1899 -0.8146 0.5480
vn 0.3659 -0.8146 0.4500
vn 0.4977 -0.8146 0.2977
vn 0.5695 -0.8146 0.1095
vn 0.8676 -0.3329 -0.3695
vn 0.9416 -0.3329 -0.0505
vn 0.6889 -0.3329 -0.6439
vn 0.4271 -0.3329 -0.8407
vn 0.1138 -0.3329 -0.9361
vn -0.2132 -0.3329 -0.9185
vn -0.5145 -0.3329 -0.7902
vn -0.7537 -0.3329 -0.5666
vn -0.9021 -0.3329 -0.2746
vn -0.9416 -0.3329 0.0505
vn -0.8676 -0.3329 0.3695
vn -0.6889 -0.3329 0.6439
vn -0.4271 -0.3329 0.8407
vn -0.1138 -0.3329 0.9361
vn 0.2132 -0.3329 0.9185
vn 0.5145 -0.3329 0.7902
vn 0.7537 -0.3329 0.5666
vn 0.9021 -0.3329 0.2746
vn 0.9350 -0.0652 -0.3486
vn 0.9978 -0.0652 -0.0078
vn 0.7594 -0.0652 -0.6473
vn 0.4922 -0.0652 -0.8680
vn 0.1656 -0.0652 -0.9840
vn -0.1809 -0.0652 -0.9813
vn -0.5056 -0.0652 -0.8603
vn -0.7694 -0.0652 -0.6355
vn -0.9403 -0.0652 -0.3340
vn -0.9978 -0.0652 0.0078
vn -0.9350 -0.0652 0.3486
vn -0.7594 -0.0652 0.6473
vn -0.4922 -0.0652 0.8680
vn -0.1656 -0.0652 0.9840
vn 0.1809 -0.0652 0.9813
vn 0.5056 -0.0652 0.8603
vn 0.7694 -0.0652 0.6355
vn 0.9403 -0.0652 0.3340
vn 0.9403 0.0652 -0.3340
vn 0.9978 0.0652 0.0078
vn 0.7694 0.0652 -0.6355
vn 0.5056 0.0652 -0.8603
vn 0.1809 0.0652 -0.9813
vn -0.1656 0.0652 -0.9840
vn -0.4922 0.0652 -0.8680
vn -0.7594 0.0652 -0.6473
vn -0.9350 0.0652 -0.3486
vn -0.9978 0.0652 -0.0078
vn -0.9403 0.0652 0.3340
vn -0.7694 0.0652 0.6355
vn -0.5056 0.0652 0.8603
vn -0.1809 0.0652 0.9813
vn 0.1656 0.0652 0.9840
vn 0.4922 0.0652 0.8680
vn 0.7594 0.0652 0.6473
vn 0.9350 0.0652 0.3486
vn 0.9021 0.3329 -0.2746
vn 0.9416 0.3329 0.0505
vn 0.7538 0.3329 -0.5666
vn 0.5145 0.3329 -0.7902
vn 0.2132 0.3329 -0.9185
vn -0.1138 0.3329 -0.9361
vn -0.4271 0.3329 -0.8407
vn -0.6889 0.3329 -0.6439
vn -0.8676 0.3329 -0.3695
vn -0.9416 0.3329 -0.0505
vn -0.9021 0.3329 0.2746
vn -0.7538 0.3329 0.5666
vn -0.5145 0.3329 0.7902
vn -0.2132 0.3329 0.9185
vn 0.1138 0.3329 0.9361
vn 0.4271 0.3329 0.8407
vn 0.6889 0.3329 0.6439
vn 0.8676 0.3329 0.3695
vn 0.5695 0.8146 -0.1095
vn 0.5726 0.8146 0.0919
vn 0.4977 0.8146 -0.2977
vn 0.3659 0.8146 -0.4500
vn 0.1899 0.8146 -0.5480
vn -0.0089 0.8146 -0.5799
vn -0.2067 0.8146 -0.5419
vn -0.3796 0.8146 -0.4385
vn -0.5067 0.8146 -0.2822
vn -0.5726 0.8146 -0.0919
vn -0.5695 0.8146 0.1095
vn -0.4977 0.8146 0.2977
vn -0.3659 0.8146 0.4500
vn -0.1899 0.8146 0.5480
vn 0.0089 0.8146 0.5799
vn 0.2067 0.8146 0.5419
vn 0.3796 0.8146 0.4385
vn 0.5067 0.8146 0.2822
vn 0.0000 1.0000 -0.0000
# 110 vertex normals

vt 0.5000 0.0000 0.0000
vt 0.8056 0.0000 1.0000
vt 0.7500 0.0000 1.0000
vt 0.8611 0.0000 1.0000
vt 0.9167 0.0000 1.0000
vt 0.9722 0.0000 1.0000
vt 0.0278 0.0000 1.0000
vt -0.0278 0.0000 1.0000
vt 0.0833 0.0000 1.0000
vt 0.1389 0.0000 1.0000
vt 0.1944 0.0000 1.0000
vt 0.2500 0.0000 1.0000
vt 0.3056 0.0000 1.0000
vt 0.3611 0.0000 1.0000
vt 0.4167 0.0000 1.0000
vt 0.4722 0.0000 1.0000
vt 0.5278 0.0000 1.0000
vt 0.5833 0.0000 1.0000
vt 0.6389 0.0000 1.0000
vt 0.6944 0.0000 1.0000
vt 0.8056 0.2000 1.0000
vt 0.7500 0.2000 1.0000
vt 0.8611 0.2000 1.0000
vt 0.9167 0.2000 1.0000
vt 0.9722 0.2000 1.0000
vt 0.0278 0.2000 1.0000
vt -0.0278 0.2000 1.0000
vt 0.0833 0.2000 1.0000
vt 0.1389 0.2000 1.0000
vt 0.1944 0.2000 1.0000
vt 0.2500 0.2000 1.0000
vt 0.3056 0.2000 1.0000
vt 0.3611 0.2000 1.0000
vt 0.4167 0.2000 1.0000
vt 0.4722 0.2000 1.0000
vt 0.5278 0.2000 1.0000
vt 0.5833 0.2000 1.0000
vt 0.6389 0.2000 1.0000
vt 0.6944 0.2000 1.0000
vt 0.8056 0.4000 1.0000
vt 0.7500 0.4000 1.0000
vt 0.8611 0.4000 1.0000
vt 0.9167 0.4000 1.0000
vt 0.9722 0.4000 1.0000
vt 0.0278 0.4000 1.0000
vt -0.0278 0.4000 1.0000
vt 0.0833 0.4000 1.0000
vt 0.1389 0.4000 1.0000
vt 0.1944 0.4000 1.0000
vt 0.2500 0.4000 1.0000
vt 0.3056 0.4000 1.0000
vt 0.3611 0.4000 1.0000
vt 0.4167 0.4000 1.0000
vt 0.4722 0.4000 1.0000
vt 0.5278 0.4000 1.0000
vt 0.5833 0.4000 1.0000
vt 0.6389 0.4000 1.0000
vt 0.6944 0.4000 1.0000
vt 0.8056 0.6000 1.0000
vt 0.7500 0.6000 1.0000
vt 0.8611 0.6000 1.0000
vt 0.9167 0.6000 1.0000
vt 0.9722 0.6000 1.0000
vt 0.0278 0.6000 1.0000
vt -0.0278 0.6000 1.0000
vt 0.0833 0.6000 1.0000
vt 0.1389 0.6000 1.0000
vt 0.1944 0.6000 1.0000
vt 0.2500 0.6000 1.0000
vt 0.3056 0.6000 1.0000
vt 0.3611 0.6000 1.0000
vt 0.4167 0.6000 1.0000
vt 0.4722 0.6000 1.0000
vt 0.5278 0.6000 1.0000
vt 0.5833 0.6000 1.0000
vt 0.6389 0.6000 1.0000
vt 0.6944 0.6000 1.0000
vt 0.8056 0.8000 1.0000
vt 0.7500 0.8000 1.0000
vt 0.8611 0.8000 1.0000
vt 0.9167 0.8000 1.0000
vt 0.9722 0.8000 1.0000
vt 0.0278 0.8000 1.0000
vt -0.0278 0.8000 1.0000
vt 0.0833 0.8000 1.0000
vt 0.1389 0.8000 1.0000
vt 0.1944 0.8000 1.0000
vt 0.2500 0.8000 1.0000
vt 0.3056 0.8000 1.0000
vt 0.3611 0.8000 1.0000
vt 0.4167 0.8000 1.0000
vt 0.4722 0.8000 1.0000
vt 0.5278 0.8000 1.0000
vt 0.5833 0.8000 1.0000
vt 0.6389 0.8000 1.0000
vt 0.6944 0.8000 1.0000
vt 0.8056 1.0000 1.0000
vt 0.7500 1.0000 1.0000
vt 0.8611 1.0000 1.0000
vt 0.9167 1.0000 1.0000
vt 0.9722 1.0000 1.0000
vt 0.0278 1.0000 1.0000
vt -0.0278 1.0000 1.0000
vt 0.0833 1.0000 1.0000
vt 0.1389 1.0000 1.0000
vt 0.1944 1.0000 1.0000
vt 0.2500 1.0000 1.0000
vt 0.3056 1.0000 1.0000
vt 0.3611 1.0000 1.0000
vt 0.4167 1.0000 1.0000
vt 0.4722 1.0000 1.0000
vt 0.5278 1.0000 1.0000
vt 0.5833 1.0000 1.0000
vt 0.6389 1.0000 1.0000
vt 0.6944 1.0000 1.0000
vt 0.5000 1.0000 0.0000
# 116 texture coords

o Cylinder001
g Cylinder001
s 1
f 1/1/1 2/2/2 3/3/3 
f 1/1/1 4/4/4 2/2/2 
f 1/1/1 5/5/5 4/4/4 
f 1/1/1 6/6/6 5/5/5 
f 1/1/1 7/7/7 6/8/6 
f 1/1/1 8/9/8 7/7/7 
f 1/1/1 9/10/9 8/9/8 
f 1/1/1 10/11/10 9/10/9 
f 1/1/1 11/12/11 10/11/10 
f 1/1/1 12/13/12 11/12/11 
f 1/1/1 13/14/13 12/13/12 
f 1/1/1 14/15/14 13/14/13 
f 1/1/1 15/16/15 14/15/14 
f 1/1/1 16/17/16 15/16/15 
f 1/1/1 17/18/17 16/17/16 
f 1/1/1 18/19/18 17/18/17 
f 1/1/1 19/20/19 18/19/18 
f 1/1/1 3/3/3 19/20/19 
s 8
f 3/3/3 20/21/20 21/22/21 
f 3/3/3 2/2/2 20/21/20 
f 2/2/2 22/23/22 20/21/20 
f 2/2/2 4/4/4 22/23/22 
f 4/4/4 23/24/23 22/23/22 
f 4/4/4 5/5/5 23/24/23 
f 5/5/5 24/25/24 23/24/23 
f 5/5/5 6/6/6 24/25/24 
f 6/8/6 25/26/25 24/27/24 
f 6/8/6 7/7/7 25/26/25 
f 7/7/7 26/28/26 25/26/25 
f 7/7/7 8/9/8 26/28/26 
f 8/9/8 27/29/27 26/28/26 
f 8/9/8 9/10/9 27/29/27 
f 9/10/9 28/30/28 27/29/27 
f 9/10/9 10/11/10 28/30/28 
f 10/11/10 29/31/29 28/30/28 
f 10/11/10 11/12/11 29/31/29 
f 11/12/11 30/32/30 29/31/29 
f 11/12/11 12/13/12 30/32/30 
f 12/13/12 31/33/31 30/32/30 
f 12/13/12 13/14/13 31/33/31 
f 13/14/13 32/34/32 31/33/31 
f 13/14/13 14/15/14 32/34/32 
f 14/15/14 33/35/33 32/34/32 
f 14/15/14 15/16/15 33/35/33 
f 15/16/15 34/36/34 33/35/33 
f 15/16/15 16/17/16 34/36/34 
f 16/17/16 35/37/35 34/36/34 
f 16/17/16 17/18/17 35/37/35 
f 17/18/17 36/38/36 35/37/35 
f 17/18/17 18/19/18 36/38/36 
f 18/19/18 37/39/37 36/38/36 
f 18/19/18 19/20/19 37/39/37 
f 19/20/19 21/22/21 37/39/37 
f 19/20/19 3/3/3 21/22/21 
f 21/22/21 38/40/38 39/41/39 
f 21/22/21 20/21/20 38/40/38 
f 20/21/20 40/42/40 38/40/38 
f 20/21/20 22/23/22 40/42/40 
f 22/23/22 41/43/41 40/42/40 
f 22/23/22 23/24/23 41/43/41 
f 23/24/23 42/44/42 41/43/41 
f 23/24/23 24/25/24 42/44/42 
f 24/27/24 43/45/43 42/46/42 
f 24/27/24 25/26/25 43/45/43 
f 25/26/25 44/47/44 43/45/43 
f 25/26/25 26/28/26 44/47/44 
f 26/28/26 45/48/45 44/47/44 
f 26/28/26 27/29/27 45/48/45 
f 27/29/27 46/49/46 45/48/45 
f 27/29/27 28/30/28 46/49/46 
f 28/30/28 47/50/47 46/49/46 
f 28/30/28 29/31/29 47/50/47 
f 29/31/29 48/51/48 47/50/47 
f 29/31/29 30/32/30 48/51/48 
f 30/32/30 49/52/49 48/51/48 
f 30/32/30 31/33/31 49/52/49 
f 31/33/31 50/53/50 49/52/49 
f 31/33/31 32/34/32 50/53/50 
f 32/34/32 51/54/51 50/53/50 
f 32/34/32 33/35/33 51/54/51 
f 33/35/33 52/55/52 51/54/51 
f 33/35/33 34/36/34 52/55/52 
f 34/36/34 53/56/53 52/55/52 
f 34/36/34 35/37/35 53/56/53 
f 35/37/35 54/57/54 53/56/53 
f 35/37/35 36/38/36 54/57/54 
f 36/38/36 55/58/55 54/57/54 
f 36/38/36 37/39/37 55/58/55 
f 37/39/37 39/41/39 55/58/55 
f 37/39/37 21/22/21 39/41/39 
f 39/41/39 56/59/56 57/60/57 
f 39/41/39 38/40/38 56/59/56 
f 38/40/38 58/61/58 56/59/56 
f 38/40/38 40/42/40 58/61/58 
f 40/42/40 59/62/59 58/61/58 
f 40/42/40 41/43/41 59/62/59 
f 41/43/41 60/63/60 59/62/59 
f 41/43/41 42/44/42 60/63/60 
f 42/46/42 61/64/61 60/65/60 
f 42/46/42 43/45/43 61/64/61 
f 43/45/43 62/66/62 61/64/61 
f 43/45/43 44/47/44 62/66/62 
f 44/47/44 63/67/63 62/66/62 
f 44/47/44 45/48/45 63/67/63 
f 45/48/45 64/68/64 63/67/63 
f 45/48/45 46/49/46 64/68/64 
f 46/49/46 65/69/65 64/68/64 
f 46/49/46 47/50/47 65/69/65 
f 47/50/47 66/70/66 65/69/65 
f 47/50/47 48/51/48 66/70/66 
f 48/51/48 67/71/67 66/70/66 
f 48/51/48 49/52/49 67/71/67 
f 49/52/49 68/72/68 67/71/67 
f 49/52/49 50/53/50 68/72/68 
f 50/53/50 69/73/69 68/72/68 
f 50/53/50 51/54/51 69/73/69 
f 51/54/51 70/74/70 69/73/69 
f 51/54/51 52/55/52 70/74/70 
f 52/55/52 71/75/71 70/74/70 
f 52/55/52 53/56/53 71/75/71 
f 53/56/53 72/76/72 71/75/71 
f 53/56/53 54/57/54 72/76/72 
f 54/57/54 73/77/73 72/76/72 
f 54/57/54 55/58/55 73/77/73 
f 55/58/55 57/60/57 73/77/73 
f 55/58/55 39/41/39 57/60/57 
f 57/60/57 74/78/74 75/79/75 
f 57/60/57 56/59/56 74/78/74 
f 56/59/56 76/80/76 74/78/74 
f 56/59/56 58/61/58 76/80/76 
f 58/61/58 77/81/77 76/80/76 
f 58/61/58 59/62/59 77/81/77 
f 59/62/59 78/82/78 77/81/77 
f 59/62/59 60/63/60 78/82/78 
f 60/65/60 79/83/79 78/84/78 
f 60/65/60 61/64/61 79/83/79 
f 61/64/61 80/85/80 79/83/79 
f 61/64/61 62/66/62 80/85/80 
f 62/66/62 81/86/81 80/85/80 
f 62/66/62 63/67/63 81/86/81 
f 63/67/63 82/87/82 81/86/81 
f 63/67/63 64/68/64 82/87/82 
f 64/68/64 83/88/83 82/87/82 
f 64/68/64 65/69/65 83/88/83 
f 65/69/65 84/89/84 83/88/83 
f 65/69/65 66/70/66 84/89/84 
f 66/70/66 85/90/85 84/89/84 
f 66/70/66 67/71/67 85/90/85 
f 67/71/67 86/91/86 85/90/85 
f 67/71/67 68/72/68 86/91/86 
f 68/72/68 87/92/87 86/91/86 
f 68/72/68 69/73/69 87/92/87 
f 69/73/69 88/93/88 87/92/87 
f 69/73/69 70/74/70 88/93/88 
f 70/74/70 89/94/89 88/93/88 
f 70/74/70 71/75/71 89/94/89 
f 71/75/71 90/95/90 89/94/89 
f 71/75/71 72/76/72 90/95/90 
f 72/76/72 91/96/91 90/95/90 
f 72/76/72 73/77/73 91/96/91 
f 73/77/73 75/79/75 91/96/91 
f 73/77/73 57/60/57 75/79/75 
f 75/79/75 92/97/92 93/98/93 
f 75/79/75 74/78/74 92/97/92 
f 74/78/74 94/99/94 92/97/92 
f 74/78/74 76/80/76 94/99/94 
f 76/80/76 95/100/95 94/99/94 
f 76/80/76 77/81/77 95/100/95 
f 77/81/77 96/101/96 95/100/95 
f 77/81/77 78/82/78 96/101/96 
f 78/84/78 97/102/97 96/103/96 
f 78/84/78 79/83/79 97/102/97 
f 79/83/79 98/104/98 97/102/97 
f 79/83/79 80/85/80 98/104/98 
f 80/85/80 99/105/99 98/104/98 
f 80/85/80 81/86/81 99/105/99 
f 81/86/81 100/106/100 99/105/99 
f 81/86/81 82/87/82 100/106/100 
f 82/87/82 101/107/101 100/106/100 
f 82/87/82 83/88/83 101/107/101 
f 83/88/83 102/108/102 101/107/101 
f 83/88/83 84/89/84 102/108/102 
f 84/89/84 103/109/103 102/108/102 
f 84/89/84 85/90/85 103/109/103 
f 85/90/85 104/110/104 103/109/103 
f 85/90/85 86/91/86 104/110/104 
f 86/91/86 105/111/105 104/110/104 
f 86/91/86 87/92/87 105/111/105 
f 87/92/87 106/112/106 105/111/105 
f 87/92/87 88/93/88 106/112/106 
f 88/93/88 107/113/107 106/112/106 
f 88/93/88 89/94/89 107/113/107 
f 89/94/89 108/114/108 107/113/107 
f 89/94/89 90/95/90 108/114/108 
f 90/95/90 109/115/109 108/114/108 
f 90/95/90 91/96/91 109/115/109 
f 91/96/91 93/98/93 109/115/109 
f 91/96/91 75/79/75 93/98/93 
s 1
f 110/116/110 93/98/93 92/97/92 
f 110/116/110 92/97/92 94/99/94 
f 110/116/110 94/99/94 95/100/95 
f 110/116/110 95/100/95 96/101/96 
f 110/116/110 96/103/96 97/102/97 
f 110/116/110 97/102/97 98/104/98 
f 110/116/110 98/104/98 99/105/99 
f 110/116/110 99/105/99 100/106/100 
f 110/116/110 100/106/100 101/107/101 
f 110/116/110 101/107/101 102/108/102 
f 110/116/110 102/108/102 103/109/103 
f 110/116/110 103/109/103 104/110/104 
f 110/116/110 104/110/104 105/111/105 
f 110/116/110 105/111/105 106/112/106 
f 110/116/110 106/112/106 107/113/107 
f 110/116/110 107/113/107 108/114/108 
f 110/116/110 108/114/108 109/115/109 
f 110/116/110 109/115/109 93/98/93 
# 216 faces

